<?xml version="1.0" encoding="UTF-8" standalone="no"?>
<!-- Created with Inkscape (http://www.inkscape.org/) -->

<svg
   width="10.019919mm"
   height="10.352388mm"
   viewBox="0 0 10.019919 10.352388"
   version="1.1"
   id="svg1"
   inkscape:version="1.3.2 (091e20e, 2023-11-25, custom)"
   sodipodi:docname="logo.svg"
   xmlns:inkscape="http://www.inkscape.org/namespaces/inkscape"
   xmlns:sodipodi="http://sodipodi.sourceforge.net/DTD/sodipodi-0.dtd"
   xmlns="http://www.w3.org/2000/svg"
   xmlns:svg="http://www.w3.org/2000/svg">
  <sodipodi:namedview
     id="namedview1"
     pagecolor="#ffffff"
     bordercolor="#000000"
     borderopacity="0.25"
     inkscape:showpageshadow="2"
     inkscape:pageopacity="0.0"
     inkscape:pagecheckerboard="0"
     inkscape:deskcolor="#d1d1d1"
     inkscape:document-units="mm"
     inkscape:zoom="16.448685"
     inkscape:cx="22.950163"
     inkscape:cy="20.427165"
     inkscape:window-width="1920"
     inkscape:window-height="1009"
     inkscape:window-x="-8"
     inkscape:window-y="-8"
     inkscape:window-maximized="1"
     inkscape:current-layer="layer1" />
  <defs
     id="defs1">
    <filter
       inkscape:collect="always"
       style="color-interpolation-filters:sRGB"
       id="filter84"
       x="-0.050964567"
       y="-0.049166891"
       width="1.1019291"
       height="1.0983338">
      <feGaussianBlur
         inkscape:collect="always"
         stdDeviation="0.77283861"
         id="feGaussianBlur84" />
    </filter>
    <clipPath
       clipPathUnits="userSpaceOnUse"
       id="clipPath92">
      <path
         style="font-variation-settings:normal;opacity:1;fill:#c9e7b5;fill-opacity:1;fill-rule:evenodd;stroke:none;stroke-width:1.3;stroke-linecap:round;stroke-linejoin:round;stroke-miterlimit:4;stroke-dasharray:none;stroke-dashoffset:0;stroke-opacity:1;paint-order:stroke fill markers"
         d="m 244.69166,153.50781 -2.82742,2.90392 2.64634,5.79462 -2.82742,2.90393 2.64634,5.79462 -2.82741,2.90392 2.64633,5.79462 -2.82741,2.90392 2.64634,5.79462 5.47375,2.8907 2.82742,-2.90392 5.47375,2.89069 2.82742,-2.90392 5.47375,2.8907 2.82741,-2.90392 5.47378,2.8907 2.82742,-2.90393 -2.64636,-5.79462 2.82741,-2.90392 -2.64633,-5.79462 2.82741,-2.90393 -2.64633,-5.79462 2.82742,-2.90392 -2.64634,-5.79462 -5.47375,-2.8907 -2.82742,2.90393 -5.47376,-2.8907 -2.82742,2.90392 -5.47375,-2.8907 -2.82742,2.90393 z"
         id="path93" />
    </clipPath>
    <filter
       inkscape:collect="always"
       style="color-interpolation-filters:sRGB"
       id="filter85"
       x="-0.068796024"
       y="-0.068795728"
       width="1.137592"
       height="1.1375915">
      <feGaussianBlur
         inkscape:collect="always"
         stdDeviation="0.91893992"
         id="feGaussianBlur85" />
    </filter>
    <filter
       inkscape:collect="always"
       style="color-interpolation-filters:sRGB"
       id="filter119"
       x="-0.086228842"
       y="-0.31055582"
       width="1.1724577"
       height="1.6211116">
      <feGaussianBlur
         inkscape:collect="always"
         stdDeviation="0.19415866"
         id="feGaussianBlur119" />
    </filter>
  </defs>
  <g
     inkscape:label="Layer 1"
     inkscape:groupmode="layer"
     id="layer1"
     transform="translate(-77.258322,-88.10625)">
    <g
       id="g127"
       transform="matrix(0.60820062,0,0,0.60820062,-66.46353,57.937307)">
      <g
         id="g93"
         transform="matrix(0.41080152,0,0,0.41080152,137.7163,-12.896642)">
        <path
           style="font-variation-settings:normal;opacity:1;fill:#c9e7b5;fill-opacity:1;fill-rule:evenodd;stroke:#c9e8a8;stroke-width:1.3;stroke-linecap:round;stroke-linejoin:round;stroke-miterlimit:4;stroke-dasharray:none;stroke-dashoffset:0;stroke-opacity:1;paint-order:stroke fill markers"
           d="m 244.69166,153.50781 -2.82742,2.90392 2.64634,5.79462 -2.82742,2.90393 2.64634,5.79462 -2.82741,2.90392 2.64633,5.79462 -2.82741,2.90392 2.64634,5.79462 5.47375,2.8907 2.82742,-2.90392 5.47375,2.89069 2.82742,-2.90392 5.47374,2.8907 2.82742,-2.90392 5.47378,2.8907 2.82742,-2.90393 -2.64637,-5.79462 2.82742,-2.90392 -2.64634,-5.79462 2.82742,-2.90393 -2.64633,-5.79462 2.82741,-2.90392 -2.64633,-5.79462 -5.47376,-2.8907 -2.82741,2.90393 -5.47376,-2.8907 -2.82742,2.90392 -5.47375,-2.8907 -2.82742,2.90393 z"
           id="path91" />
        <path
           id="path84"
           style="opacity:0.484507;mix-blend-mode:normal;vector-effect:none;fill-rule:evenodd;stroke-width:1.65034;stroke-linecap:round;stroke-linejoin:round;paint-order:stroke fill markers;filter:url(#filter84);stop-color:#000000"
           d="m 270.12415,153.99701 -2.82722,2.90421 -5.47408,-2.89078 -2.82722,2.9037 -5.47357,-2.89078 -2.82773,2.90422 -5.47357,-2.89078 -2.82774,2.9037 2.64635,5.79499 -2.82721,2.9037 2.64635,5.79448 -2.82722,2.90422 2.64635,5.79447 -2.82773,2.90422 2.64635,5.79448 5.47408,2.89078 2.82722,-2.90422 5.47356,2.89078 2.82774,-2.9037 5.47357,2.89078 2.82721,-2.90421 5.47409,2.89078 2.82722,-2.9037 -2.64635,-5.795 2.82773,-2.9037 -2.64635,-5.79447 2.82722,-2.90422 -2.64635,-5.79448 2.82722,-2.90421 -2.64635,-5.79448 z" />
        <path
           sodipodi:type="star"
           style="fill:#c9e8a8;fill-opacity:1;fill-rule:evenodd;stroke:none;stroke-width:1.9;stroke-linecap:round;stroke-linejoin:round;stroke-miterlimit:4;stroke-dasharray:none;stroke-dashoffset:0;stroke-opacity:1;paint-order:stroke fill markers"
           id="path27"
           inkscape:flatsided="true"
           sodipodi:sides="6"
           sodipodi:cx="243.04446"
           sodipodi:cy="154.7758"
           sodipodi:r1="6.0693011"
           sodipodi:r2="5.2561684"
           sodipodi:arg1="1.0471976"
           sodipodi:arg2="1.5707963"
           inkscape:rounded="0"
           inkscape:randomized="0"
           d="m 246.07911,160.03197 -6.0693,0 -3.03465,-5.25617 3.03465,-5.25617 6.0693,0 3.03466,5.25617 z"
           inkscape:transform-center-x="2.433846e-06"
           transform="matrix(0.90187577,0.47628178,-0.01722524,0.82746036,30.808137,-84.526058)" />
        <path
           sodipodi:type="star"
           style="font-variation-settings:normal;vector-effect:none;fill:#d5f0bb;fill-opacity:1;fill-rule:evenodd;stroke:none;stroke-width:1.9;stroke-linecap:round;stroke-linejoin:round;stroke-miterlimit:4;stroke-dasharray:none;stroke-dashoffset:0;stroke-opacity:1;-inkscape-stroke:none;paint-order:stroke fill markers;stop-color:#000000"
           id="path32"
           inkscape:flatsided="true"
           sodipodi:sides="6"
           sodipodi:cx="243.04446"
           sodipodi:cy="154.7758"
           sodipodi:r1="6.0693011"
           sodipodi:r2="5.2561684"
           sodipodi:arg1="1.0471976"
           sodipodi:arg2="1.5707963"
           inkscape:rounded="0"
           inkscape:randomized="0"
           d="m 246.07911,160.03197 -6.0693,0 -3.03465,-5.25617 3.03465,-5.25617 6.0693,0 3.03466,5.25617 z"
           inkscape:transform-center-x="2.0182526e-06"
           transform="matrix(0.90187577,0.47628178,-0.01722524,0.82746036,39.109308,-84.539284)" />
        <path
           sodipodi:type="star"
           style="fill:#a0d386;fill-opacity:1;fill-rule:evenodd;stroke:none;stroke-width:1.9;stroke-linecap:round;stroke-linejoin:round;stroke-miterlimit:4;stroke-dasharray:none;stroke-dashoffset:0;stroke-opacity:1;paint-order:stroke fill markers"
           id="path33"
           inkscape:flatsided="true"
           sodipodi:sides="6"
           sodipodi:cx="243.04446"
           sodipodi:cy="154.7758"
           sodipodi:r1="6.0693011"
           sodipodi:r2="5.2561684"
           sodipodi:arg1="1.0471976"
           sodipodi:arg2="1.5707963"
           inkscape:rounded="0"
           inkscape:randomized="0"
           d="m 246.07911,160.03197 -6.0693,0 -3.03465,-5.25617 3.03465,-5.25617 6.0693,0 3.03466,5.25617 z"
           inkscape:transform-center-x="2.1289435e-06"
           transform="matrix(0.90187577,0.47628178,-0.01722524,0.82746036,38.928231,-75.840741)" />
        <path
           sodipodi:type="star"
           style="fill:#d5f0bb;fill-opacity:1;fill-rule:evenodd;stroke:none;stroke-width:1.9;stroke-linecap:round;stroke-linejoin:round;stroke-miterlimit:4;stroke-dasharray:none;stroke-dashoffset:0;stroke-opacity:1;paint-order:stroke fill markers"
           id="path34"
           inkscape:flatsided="true"
           sodipodi:sides="6"
           sodipodi:cx="243.04446"
           sodipodi:cy="154.7758"
           sodipodi:r1="6.0693011"
           sodipodi:r2="5.2561684"
           sodipodi:arg1="1.0471976"
           sodipodi:arg2="1.5707963"
           inkscape:rounded="0"
           inkscape:randomized="0"
           d="m 246.07911,160.03197 -6.0693,0 -3.03465,-5.25617 3.03465,-5.25617 6.0693,0 3.03466,5.25617 z"
           inkscape:transform-center-x="2.3047562e-06"
           transform="matrix(0.90187577,0.47628178,-0.01722524,0.82746036,30.627059,-75.827515)" />
        <path
           sodipodi:type="star"
           style="fill:#b0dba1;fill-opacity:1;fill-rule:evenodd;stroke:none;stroke-width:1.9;stroke-linecap:round;stroke-linejoin:round;stroke-miterlimit:4;stroke-dasharray:none;stroke-dashoffset:0;stroke-opacity:1;paint-order:stroke fill markers"
           id="path35"
           inkscape:flatsided="true"
           sodipodi:sides="6"
           sodipodi:cx="243.04446"
           sodipodi:cy="154.7758"
           sodipodi:r1="6.0693011"
           sodipodi:r2="5.2561684"
           sodipodi:arg1="1.0471976"
           sodipodi:arg2="1.5707963"
           inkscape:rounded="0"
           inkscape:randomized="0"
           d="m 246.07911,160.03197 -6.0693,0 -3.03465,-5.25617 3.03465,-5.25617 6.0693,0 3.03466,5.25617 z"
           inkscape:transform-center-x="1.9938594e-06"
           transform="matrix(0.90187577,0.47628178,-0.01722524,0.82746036,38.747153,-67.142198)" />
        <path
           sodipodi:type="star"
           style="fill:#b7e5a4;fill-opacity:1;fill-rule:evenodd;stroke:none;stroke-width:1.9;stroke-linecap:round;stroke-linejoin:round;stroke-miterlimit:4;stroke-dasharray:none;stroke-dashoffset:0;stroke-opacity:1;paint-order:stroke fill markers"
           id="path36"
           inkscape:flatsided="true"
           sodipodi:sides="6"
           sodipodi:cx="243.04446"
           sodipodi:cy="154.7758"
           sodipodi:r1="6.0693011"
           sodipodi:r2="5.2561684"
           sodipodi:arg1="1.0471976"
           sodipodi:arg2="1.5707963"
           inkscape:rounded="0"
           inkscape:randomized="0"
           d="m 246.07911,160.03197 -6.0693,0 -3.03465,-5.25617 3.03465,-5.25617 6.0693,0 3.03466,5.25617 z"
           inkscape:transform-center-x="1.7078178e-06"
           transform="matrix(0.90187577,0.47628178,-0.01722524,0.82746036,47.048325,-67.155424)" />
        <path
           sodipodi:type="star"
           style="fill:#c9e8a8;fill-opacity:1;fill-rule:evenodd;stroke:none;stroke-width:1.9;stroke-linecap:round;stroke-linejoin:round;stroke-miterlimit:4;stroke-dasharray:none;stroke-dashoffset:0;stroke-opacity:1;paint-order:stroke fill markers"
           id="path37"
           inkscape:flatsided="true"
           sodipodi:sides="6"
           sodipodi:cx="243.04446"
           sodipodi:cy="154.7758"
           sodipodi:r1="6.0693011"
           sodipodi:r2="5.2561684"
           sodipodi:arg1="1.0471976"
           sodipodi:arg2="1.5707963"
           inkscape:rounded="0"
           inkscape:randomized="0"
           d="m 246.07911,160.03197 -6.0693,0 -3.03465,-5.25617 3.03465,-5.25617 6.0693,0 3.03466,5.25617 z"
           inkscape:transform-center-x="1.0288215e-06"
           transform="matrix(0.90187577,0.47628178,-0.01722524,0.82746036,47.229403,-75.853967)" />
        <path
           sodipodi:type="star"
           style="font-variation-settings:normal;vector-effect:none;fill:#b7e5a4;fill-opacity:1;fill-rule:evenodd;stroke:none;stroke-width:1.9;stroke-linecap:round;stroke-linejoin:round;stroke-miterlimit:4;stroke-dasharray:none;stroke-dashoffset:0;stroke-opacity:1;-inkscape-stroke:none;paint-order:stroke fill markers;stop-color:#000000"
           id="path42"
           inkscape:flatsided="true"
           sodipodi:sides="6"
           sodipodi:cx="243.04446"
           sodipodi:cy="154.7758"
           sodipodi:r1="6.0693011"
           sodipodi:r2="5.2561684"
           sodipodi:arg1="1.0471976"
           sodipodi:arg2="1.5707963"
           inkscape:rounded="0"
           inkscape:randomized="0"
           d="m 246.07911,160.03197 -6.0693,0 -3.03465,-5.25617 3.03465,-5.25617 6.0693,0 3.03466,5.25617 z"
           inkscape:transform-center-x="1.0288215e-06"
           transform="matrix(0.90187577,0.47628178,-0.01722524,0.82746036,55.530574,-75.867192)" />
        <path
           sodipodi:type="star"
           style="font-variation-settings:normal;vector-effect:none;fill:#d5f0bb;fill-opacity:1;fill-rule:evenodd;stroke:none;stroke-width:1.9;stroke-linecap:round;stroke-linejoin:round;stroke-miterlimit:4;stroke-dasharray:none;stroke-dashoffset:0;stroke-opacity:1;-inkscape-stroke:none;paint-order:stroke fill markers;stop-color:#000000"
           id="path43"
           inkscape:flatsided="true"
           sodipodi:sides="6"
           sodipodi:cx="243.04446"
           sodipodi:cy="154.7758"
           sodipodi:r1="6.0693011"
           sodipodi:r2="5.2561684"
           sodipodi:arg1="1.0471976"
           sodipodi:arg2="1.5707963"
           inkscape:rounded="0"
           inkscape:randomized="0"
           d="m 246.07911,160.03197 -6.0693,0 -3.03465,-5.25617 3.03465,-5.25617 6.0693,0 3.03466,5.25617 z"
           inkscape:transform-center-x="1.0288215e-06"
           transform="matrix(0.90187577,0.47628178,-0.01722524,0.82746036,55.349496,-67.168649)" />
        <path
           sodipodi:type="star"
           style="font-variation-settings:normal;vector-effect:none;fill:#a0d386;fill-opacity:1;fill-rule:evenodd;stroke:none;stroke-width:1.9;stroke-linecap:round;stroke-linejoin:round;stroke-miterlimit:4;stroke-dasharray:none;stroke-dashoffset:0;stroke-opacity:1;-inkscape-stroke:none;paint-order:stroke fill markers;stop-color:#000000"
           id="path44"
           inkscape:flatsided="true"
           sodipodi:sides="6"
           sodipodi:cx="243.04446"
           sodipodi:cy="154.7758"
           sodipodi:r1="6.0693011"
           sodipodi:r2="5.2561684"
           sodipodi:arg1="1.0471976"
           sodipodi:arg2="1.5707963"
           inkscape:rounded="0"
           inkscape:randomized="0"
           d="m 246.07911,160.03197 -6.0693,0 -3.03465,-5.25617 3.03465,-5.25617 6.0693,0 3.03466,5.25617 z"
           inkscape:transform-center-x="1.0288215e-06"
           transform="matrix(0.90187577,0.47628178,-0.01722524,0.82746036,55.16842,-58.470105)" />
        <path
           sodipodi:type="star"
           style="fill:#c9e8a8;fill-opacity:1;fill-rule:evenodd;stroke:none;stroke-width:1.9;stroke-linecap:round;stroke-linejoin:round;stroke-miterlimit:4;stroke-dasharray:none;stroke-dashoffset:0;stroke-opacity:1;paint-order:stroke fill markers"
           id="path45"
           inkscape:flatsided="true"
           sodipodi:sides="6"
           sodipodi:cx="243.04446"
           sodipodi:cy="154.7758"
           sodipodi:r1="6.0693011"
           sodipodi:r2="5.2561684"
           sodipodi:arg1="1.0471976"
           sodipodi:arg2="1.5707963"
           inkscape:rounded="0"
           inkscape:randomized="0"
           d="m 246.07911,160.03197 -6.0693,0 -3.03465,-5.25617 3.03465,-5.25617 6.0693,0 3.03466,5.25617 z"
           inkscape:transform-center-x="1.0288215e-06"
           transform="matrix(0.90187577,0.47628178,-0.01722524,0.82746036,46.867246,-58.456881)" />
        <path
           sodipodi:type="star"
           style="fill:#c9e8a8;fill-opacity:1;fill-rule:evenodd;stroke:none;stroke-width:1.9;stroke-linecap:round;stroke-linejoin:round;stroke-miterlimit:4;stroke-dasharray:none;stroke-dashoffset:0;stroke-opacity:1;paint-order:stroke fill markers"
           id="path46"
           inkscape:flatsided="true"
           sodipodi:sides="6"
           sodipodi:cx="243.04446"
           sodipodi:cy="154.7758"
           sodipodi:r1="6.0693011"
           sodipodi:r2="5.2561684"
           sodipodi:arg1="1.0471976"
           sodipodi:arg2="1.5707963"
           inkscape:rounded="0"
           inkscape:randomized="0"
           d="m 246.07911,160.03197 -6.0693,0 -3.03465,-5.25617 3.03465,-5.25617 6.0693,0 3.03466,5.25617 z"
           inkscape:transform-center-x="1.0288215e-06"
           transform="matrix(0.90187577,0.47628178,-0.01722524,0.82746036,30.445981,-67.128972)" />
        <path
           sodipodi:type="star"
           style="font-variation-settings:normal;vector-effect:none;fill:#b0dba1;fill-opacity:1;fill-rule:evenodd;stroke:none;stroke-width:1.9;stroke-linecap:round;stroke-linejoin:round;stroke-miterlimit:4;stroke-dasharray:none;stroke-dashoffset:0;stroke-opacity:1;-inkscape-stroke:none;paint-order:stroke fill markers;stop-color:#000000"
           id="path48"
           inkscape:flatsided="true"
           sodipodi:sides="6"
           sodipodi:cx="243.04446"
           sodipodi:cy="154.7758"
           sodipodi:r1="6.0693011"
           sodipodi:r2="5.2561684"
           sodipodi:arg1="1.0471976"
           sodipodi:arg2="1.5707963"
           inkscape:rounded="0"
           inkscape:randomized="0"
           d="m 246.07911,160.03197 -6.0693,0 -3.03465,-5.25617 3.03465,-5.25617 6.0693,0 3.03466,5.25617 z"
           inkscape:transform-center-x="1.0288215e-06"
           transform="matrix(0.90187577,0.47628178,-0.01722524,0.82746036,47.410481,-84.552509)" />
        <path
           sodipodi:type="star"
           style="font-variation-settings:normal;vector-effect:none;fill:#a0d386;fill-opacity:1;fill-rule:evenodd;stroke:none;stroke-width:1.9;stroke-linecap:round;stroke-linejoin:round;stroke-miterlimit:4;stroke-dasharray:none;stroke-dashoffset:0;stroke-opacity:1;-inkscape-stroke:none;paint-order:stroke fill markers;stop-color:#000000"
           id="path51"
           inkscape:flatsided="true"
           sodipodi:sides="6"
           sodipodi:cx="243.04446"
           sodipodi:cy="154.7758"
           sodipodi:r1="6.0693011"
           sodipodi:r2="5.2561684"
           sodipodi:arg1="1.0471976"
           sodipodi:arg2="1.5707963"
           inkscape:rounded="0"
           inkscape:randomized="0"
           d="m 246.07911,160.03197 -6.0693,0 -3.03465,-5.25617 3.03465,-5.25617 6.0693,0 3.03466,5.25617 z"
           inkscape:transform-center-x="1.0288215e-06"
           transform="matrix(0.90187577,0.47628178,-0.01722524,0.82746036,55.711653,-84.565735)" />
        <path
           sodipodi:type="star"
           style="font-variation-settings:normal;vector-effect:none;fill:#d5f0bb;fill-opacity:1;fill-rule:evenodd;stroke:none;stroke-width:1.9;stroke-linecap:round;stroke-linejoin:round;stroke-miterlimit:4;stroke-dasharray:none;stroke-dashoffset:0;stroke-opacity:1;-inkscape-stroke:none;paint-order:stroke fill markers;stop-color:#000000"
           id="path52"
           inkscape:flatsided="true"
           sodipodi:sides="6"
           sodipodi:cx="243.04446"
           sodipodi:cy="154.7758"
           sodipodi:r1="6.0693011"
           sodipodi:r2="5.2561684"
           sodipodi:arg1="1.0471976"
           sodipodi:arg2="1.5707963"
           inkscape:rounded="0"
           inkscape:randomized="0"
           d="m 246.07911,160.03197 -6.0693,0 -3.03465,-5.25617 3.03465,-5.25617 6.0693,0 3.03466,5.25617 z"
           inkscape:transform-center-x="1.0288215e-06"
           transform="matrix(0.90187577,0.47628178,-0.01722524,0.82746036,38.566074,-58.443655)" />
        <path
           sodipodi:type="star"
           style="font-variation-settings:normal;vector-effect:none;fill:#b0dba1;fill-opacity:1;fill-rule:evenodd;stroke:none;stroke-width:1.9;stroke-linecap:round;stroke-linejoin:round;stroke-miterlimit:4;stroke-dasharray:none;stroke-dashoffset:0;stroke-opacity:1;-inkscape-stroke:none;paint-order:stroke fill markers;stop-color:#000000"
           id="path53"
           inkscape:flatsided="true"
           sodipodi:sides="6"
           sodipodi:cx="243.04446"
           sodipodi:cy="154.7758"
           sodipodi:r1="6.0693011"
           sodipodi:r2="5.2561684"
           sodipodi:arg1="1.0471976"
           sodipodi:arg2="1.5707963"
           inkscape:rounded="0"
           inkscape:randomized="0"
           d="m 246.07911,160.03197 -6.0693,0 -3.03465,-5.25617 3.03465,-5.25617 6.0693,0 3.03466,5.25617 z"
           inkscape:transform-center-x="1.0288215e-06"
           transform="matrix(0.90187577,0.47628178,-0.01722524,0.82746036,30.264902,-58.43043)" />
        <path
           id="path86"
           style="opacity:0.238028;vector-effect:none;fill:#ffffff;fill-opacity:1;fill-rule:evenodd;stroke:none;stroke-width:0.1;stroke-linecap:round;stroke-linejoin:round;stroke-miterlimit:4;stroke-dasharray:none;stroke-dashoffset:0;stroke-opacity:1;-inkscape-stroke:none;paint-order:stroke fill markers"
           d="m 264.96422,157.32575 c 2.09115,-3.4e-4 4.18271,0.79998 5.78362,2.40089 3.20183,3.20183 3.20183,8.36594 0,11.56777 -3.20182,3.20182 -8.36491,3.20027 -11.56673,-0.002 -3.20183,-3.20183 -3.20183,-8.36284 0,-11.56467 1.60091,-1.60091 3.69196,-2.40209 5.78311,-2.40244 z"
           sodipodi:nodetypes="csscscc" />
        <g
           id="g92"
           clip-path="url(#clipPath92)">
          <path
             style="font-variation-settings:normal;opacity:0.649296;fill:none;fill-opacity:1;fill-rule:evenodd;stroke:#ffd5d5;stroke-width:1.3;stroke-linecap:round;stroke-linejoin:round;stroke-miterlimit:4;stroke-dasharray:none;stroke-dashoffset:0;stroke-opacity:1;paint-order:stroke fill markers"
             d="m 260.75077,179.57699 -2.82742,2.90392 2.64634,5.79462"
             id="path90"
             transform="translate(2.5751235e-6)" />
          <path
             style="font-variation-settings:normal;opacity:0.649296;fill:none;fill-opacity:1;fill-rule:evenodd;stroke:#ffaaaa;stroke-width:1.5;stroke-linecap:round;stroke-linejoin:round;stroke-miterlimit:4;stroke-dasharray:none;stroke-dashoffset:0;stroke-opacity:1;paint-order:stroke fill markers"
             d="m 260.93185,170.87844 -2.82742,2.90393 2.64634,5.79462 5.47374,2.89069 2.64634,5.79463"
             id="path89"
             transform="translate(2.5751235e-6)" />
          <path
             style="font-variation-settings:normal;opacity:0.649296;fill:none;fill-opacity:1;fill-rule:evenodd;stroke:#ff8080;stroke-width:1.7;stroke-linecap:round;stroke-linejoin:round;stroke-miterlimit:4;stroke-dasharray:none;stroke-dashoffset:0;stroke-opacity:1;paint-order:stroke fill markers"
             d="m 252.81175,162.19313 5.47376,2.89069 2.64634,5.79462 5.47374,2.8907 2.82742,-2.90392 5.47375,2.8907"
             id="path88"
             transform="translate(2.5751235e-6)" />
          <path
             style="font-variation-settings:normal;opacity:0.649296;vector-effect:none;fill:none;fill-opacity:1;fill-rule:evenodd;stroke:#ff5555;stroke-width:1.9;stroke-linecap:round;stroke-linejoin:round;stroke-miterlimit:4;stroke-dasharray:none;stroke-dashoffset:0;stroke-opacity:1;-inkscape-stroke:none;paint-order:stroke fill markers"
             d="m 250.16541,156.39851 2.64634,5.79462 -2.82741,2.90392 2.64633,5.79462 -2.82741,2.90393 2.64634,5.79461 -2.82742,2.90393 2.64634,5.79462"
             id="path87"
             transform="translate(2.5751235e-6)" />
        </g>
        <path
           id="path85"
           style="opacity:0.514085;vector-effect:none;fill:#000000;fill-opacity:1;fill-rule:evenodd;stroke:none;stroke-width:0.1;stroke-linecap:round;stroke-linejoin:round;stroke-miterlimit:4;stroke-dasharray:none;stroke-dashoffset:0;stroke-opacity:1;-inkscape-stroke:none;paint-order:stroke fill markers;filter:url(#filter85)"
           d="m 265.42672,157.79859 c -2.58152,3.5e-4 -5.16274,0.98263 -7.1267,2.94659 -3.68979,3.68979 -3.91267,9.5579 -0.67024,13.51184 l -0.9493,0.94929 c -0.56517,-0.34577 -1.3098,-0.27512 -1.79989,0.21497 l -11.0076,11.0076 c -0.5747,0.5747 -0.5747,1.50011 0,2.07481 l 0.92191,0.92191 c 0.57471,0.5747 1.50011,0.5747 2.07481,0 l 11.0076,-11.0076 c 0.49011,-0.49011 0.56081,-1.23471 0.21497,-1.79989 l 0.9493,-0.9493 c 3.95408,3.24207 9.82274,3.01988 13.51235,-0.66972 3.92791,-3.92791 3.92791,-10.32756 0,-14.25546 -1.96395,-1.96396 -4.5457,-2.94539 -7.12721,-2.94504 z m 0,1.88825 c 2.09115,-3.4e-4 4.18271,0.79998 5.78362,2.40089 3.20183,3.20183 3.20183,8.36594 0,11.56777 -3.20182,3.20182 -8.36491,3.20027 -11.56673,-0.002 -3.20183,-3.20183 -3.20183,-8.36284 0,-11.56467 1.60091,-1.60091 3.69196,-2.40209 5.78311,-2.40244 z" />
        <path
           id="rect17"
           style="vector-effect:none;fill:#ffffff;fill-opacity:1;fill-rule:evenodd;stroke:none;stroke-width:0.1;stroke-linecap:round;stroke-linejoin:round;stroke-miterlimit:4;stroke-dasharray:none;stroke-dashoffset:0;stroke-opacity:1;-inkscape-stroke:none;paint-order:stroke fill markers"
           d="m 264.96422,155.4375 c -2.58152,3.5e-4 -5.16274,0.98263 -7.1267,2.94659 -3.68979,3.68979 -3.91267,9.5579 -0.67024,13.51184 l -0.9493,0.94929 c -0.56517,-0.34577 -1.3098,-0.27512 -1.79989,0.21497 l -11.0076,11.0076 c -0.5747,0.5747 -0.5747,1.50011 0,2.07481 l 0.92191,0.92191 c 0.57471,0.5747 1.50011,0.5747 2.07481,0 l 11.0076,-11.0076 c 0.49011,-0.49011 0.56081,-1.23471 0.21497,-1.79989 l 0.9493,-0.9493 c 3.95408,3.24207 9.82274,3.01988 13.51235,-0.66972 3.92791,-3.92791 3.92791,-10.32756 0,-14.25546 -1.96395,-1.96396 -4.5457,-2.94539 -7.12721,-2.94504 z m 0,1.88825 c 2.09115,-3.4e-4 4.18271,0.79998 5.78362,2.40089 3.20183,3.20183 3.20183,8.36594 0,11.56777 -3.20182,3.20182 -8.36491,3.20027 -11.56673,-0.002 -3.20183,-3.20183 -3.20183,-8.36284 0,-11.56467 1.60091,-1.60091 3.69196,-2.40209 5.78311,-2.40244 z" />
      </g>
      <path
         d="m 244.21162,63.312998 q -0.34931,0 -0.56004,-0.230202 -0.20959,-0.230202 -0.20959,-0.598983 0,-0.396268 0.21417,-0.632197 0.21417,-0.235928 0.58295,-0.235928 0.34015,0 0.54744,0.229057 0.20845,0.229056 0.20845,0.598983 0,0.401994 -0.21303,0.635632 -0.21302,0.233638 -0.57035,0.233638 z m 0.0137,-1.523227 q -0.25884,0 -0.42032,0.186681 -0.16149,0.186681 -0.16149,0.490182 0,0.3035 0.15691,0.489035 0.15804,0.184391 0.41115,0.184391 0.27029,0 0.42605,-0.176374 0.15576,-0.176373 0.15576,-0.493617 0,-0.32526 -0.15118,-0.502779 -0.15118,-0.177519 -0.41688,-0.177519 z m 0.99639,1.453365 v -0.20157 q 0.15347,0.113383 0.33786,0.113383 0.24738,0 0.24738,-0.164921 0,-0.04696 -0.0218,-0.07903 -0.0206,-0.03321 -0.0573,-0.05841 -0.0355,-0.0252 -0.0848,-0.04467 -0.0481,-0.02061 -0.10422,-0.04238 -0.0779,-0.03092 -0.13744,-0.06184 -0.0584,-0.03207 -0.0985,-0.07101 -0.0389,-0.04008 -0.0596,-0.09048 -0.0195,-0.05039 -0.0195,-0.117964 0,-0.08246 0.0378,-0.145451 0.0378,-0.06414 0.10078,-0.106511 0.063,-0.04352 0.14316,-0.06528 0.0813,-0.02176 0.16721,-0.02176 0.15233,0 0.27258,0.05268 v 0.190117 q -0.12942,-0.08475 -0.29777,-0.08475 -0.0527,0 -0.0951,0.0126 -0.0424,0.01145 -0.0733,0.03321 -0.0298,0.02176 -0.047,0.05268 -0.016,0.02978 -0.016,0.06643 0,0.04581 0.016,0.07673 0.0172,0.03092 0.0493,0.05497 0.0321,0.02405 0.0779,0.04352 0.0458,0.01947 0.10422,0.04238 0.0779,0.02978 0.13973,0.06184 0.0618,0.03092 0.10536,0.07101 0.0435,0.03894 0.0664,0.09048 0.0241,0.05154 0.0241,0.122545 0,0.08704 -0.0389,0.151178 -0.0378,0.06414 -0.10193,0.106511 -0.0641,0.04238 -0.14774,0.06299 -0.0836,0.02061 -0.17523,0.02061 -0.18096,0 -0.31381,-0.06986 z m 2.7315,0.04237 h -0.18782 v -0.673427 q 0,-0.194698 -0.0607,-0.281739 -0.0596,-0.08704 -0.20157,-0.08704 -0.12026,0 -0.20501,0.109947 -0.0836,0.109948 -0.0836,0.263416 v 0.668845 h -0.18782 v -0.696332 q 0,-0.345876 -0.26685,-0.345876 -0.12369,0 -0.20386,0.104221 -0.0802,0.103076 -0.0802,0.269142 v 0.668845 h -0.18783 v -1.17277 h 0.18783 v 0.185536 h 0.005 q 0.12483,-0.213023 0.3642,-0.213023 0.12025,0 0.20959,0.06757 0.0893,0.06643 0.12254,0.175228 0.13056,-0.2428 0.3894,-0.2428 0.3871,0 0.3871,0.477583 z m 0.45124,-1.470544 q -0.0504,0 -0.0859,-0.03436 -0.0355,-0.03436 -0.0355,-0.08704 0,-0.05268 0.0355,-0.08704 0.0355,-0.0355 0.0859,-0.0355 0.0515,0 0.087,0.0355 0.0367,0.03436 0.0367,0.08704 0,0.05039 -0.0367,0.0859 -0.0355,0.0355 -0.087,0.0355 z m 0.0916,1.470544 h -0.18783 v -1.17277 h 0.18783 z m 1.21972,0 h -0.18782 v -0.183245 h -0.005 q -0.12255,0.210732 -0.36077,0.210732 -0.17523,0 -0.27487,-0.09277 -0.0985,-0.09277 -0.0985,-0.246236 0,-0.328696 0.38711,-0.382525 l 0.3516,-0.04925 q 0,-0.298919 -0.24166,-0.298919 -0.21187,0 -0.38252,0.144306 v -0.192408 q 0.17294,-0.109947 0.39856,-0.109947 0.41344,0 0.41344,0.437498 z m -0.18782,-0.593257 -0.28289,0.03894 q -0.13056,0.01832 -0.19699,0.06528 -0.0664,0.04581 -0.0664,0.163776 0,0.0859 0.0607,0.140869 0.0618,0.05383 0.16377,0.05383 0.13973,0 0.2302,-0.09735 0.0916,-0.09849 0.0916,-0.248527 z"
         id="text119"
         style="font-size:2.34554px;font-family:'Segoe UI';-inkscape-font-specification:'Segoe UI';letter-spacing:0px;word-spacing:0px;opacity:0.494366;fill-rule:evenodd;stroke:#000000;stroke-width:0.15;stroke-linecap:round;stroke-linejoin:round;paint-order:stroke fill markers;filter:url(#filter119)"
         aria-label="Osmia" />
      <path
         d="m 243.91603,63.007326 q -0.34931,0 -0.56004,-0.230202 -0.20959,-0.230202 -0.20959,-0.598983 0,-0.396268 0.21417,-0.632196 0.21416,-0.235929 0.58295,-0.235929 0.34014,0 0.54744,0.229057 0.20844,0.229057 0.20844,0.598983 0,0.401995 -0.21302,0.635632 -0.21302,0.233638 -0.57035,0.233638 z m 0.0137,-1.523227 q -0.25883,0 -0.42032,0.186682 -0.16148,0.186681 -0.16148,0.490181 0,0.3035 0.1569,0.489036 0.15805,0.18439 0.41116,0.18439 0.27029,0 0.42604,-0.176373 0.15576,-0.176374 0.15576,-0.493617 0,-0.325261 -0.15117,-0.50278 -0.15118,-0.177519 -0.41689,-0.177519 z m 0.9964,1.453365 v -0.20157 q 0.15347,0.113383 0.33786,0.113383 0.24738,0 0.24738,-0.164921 0,-0.04696 -0.0218,-0.07902 -0.0206,-0.03321 -0.0573,-0.05841 -0.0355,-0.0252 -0.0847,-0.04467 -0.0481,-0.02061 -0.10422,-0.04237 -0.0779,-0.03092 -0.13743,-0.06185 -0.0584,-0.03207 -0.0985,-0.07101 -0.0389,-0.04008 -0.0595,-0.09048 -0.0195,-0.05039 -0.0195,-0.117965 0,-0.08246 0.0378,-0.145451 0.0378,-0.06414 0.10079,-0.106511 0.063,-0.04352 0.14316,-0.06528 0.0813,-0.02176 0.16721,-0.02176 0.15232,0 0.27258,0.05268 v 0.190117 q -0.12942,-0.08475 -0.29778,-0.08475 -0.0527,0 -0.0951,0.0126 -0.0424,0.01145 -0.0733,0.03321 -0.0298,0.02176 -0.047,0.05268 -0.016,0.02978 -0.016,0.06643 0,0.04581 0.016,0.07673 0.0172,0.03092 0.0493,0.05497 0.0321,0.02405 0.0779,0.04352 0.0458,0.01947 0.10422,0.04237 0.0779,0.02978 0.13972,0.06185 0.0618,0.03092 0.10537,0.07101 0.0435,0.03894 0.0664,0.09048 0.0241,0.05154 0.0241,0.122546 0,0.08704 -0.0389,0.151177 -0.0378,0.06414 -0.10193,0.106511 -0.0641,0.04238 -0.14775,0.06299 -0.0836,0.02061 -0.17522,0.02061 -0.18096,0 -0.31381,-0.06986 z m 2.7315,0.04237 h -0.18783 v -0.673426 q 0,-0.194698 -0.0607,-0.28174 -0.0596,-0.08704 -0.20157,-0.08704 -0.12025,0 -0.205,0.109947 -0.0836,0.109947 -0.0836,0.263415 v 0.668845 h -0.18782 v -0.696332 q 0,-0.345875 -0.26686,-0.345875 -0.12369,0 -0.20386,0.10422 -0.0802,0.103076 -0.0802,0.269142 v 0.668845 h -0.18782 v -1.17277 h 0.18782 v 0.185536 h 0.005 q 0.12483,-0.213022 0.3642,-0.213022 0.12025,0 0.20958,0.06757 0.0893,0.06643 0.12255,0.175229 0.13056,-0.2428 0.38939,-0.2428 0.38711,0 0.38711,0.477583 z m 0.45124,-1.470543 q -0.0504,0 -0.0859,-0.03436 -0.0355,-0.03436 -0.0355,-0.08704 0,-0.05268 0.0355,-0.08704 0.0355,-0.0355 0.0859,-0.0355 0.0515,0 0.087,0.0355 0.0366,0.03436 0.0366,0.08704 0,0.05039 -0.0366,0.0859 -0.0355,0.0355 -0.087,0.0355 z m 0.0916,1.470543 h -0.18782 v -1.17277 h 0.18782 z m 1.21973,0 h -0.18783 v -0.183245 h -0.005 q -0.12254,0.210732 -0.36076,0.210732 -0.17523,0 -0.27487,-0.09277 -0.0985,-0.09277 -0.0985,-0.246236 0,-0.328696 0.3871,-0.382524 l 0.3516,-0.04925 q 0,-0.298919 -0.24165,-0.298919 -0.21188,0 -0.38253,0.144305 V 61.88953 q 0.17294,-0.109947 0.39856,-0.109947 0.41345,0 0.41345,0.437498 z m -0.18783,-0.593256 -0.28288,0.03894 q -0.13056,0.01832 -0.19699,0.06528 -0.0664,0.04581 -0.0664,0.163776 0,0.0859 0.0607,0.14087 0.0619,0.05383 0.16378,0.05383 0.13972,0 0.2302,-0.09735 0.0916,-0.09849 0.0916,-0.248526 z"
         id="text118"
         style="font-size:2.34554px;font-family:'Segoe UI';-inkscape-font-specification:'Segoe UI';letter-spacing:0px;word-spacing:0px;fill:#ffffff;fill-rule:evenodd;stroke:#ffffff;stroke-width:0.15;stroke-linecap:round;stroke-linejoin:round;paint-order:stroke fill markers"
         aria-label="Osmia" />
    </g>
  </g>
</svg>
